<?xml version="1.0" encoding="utf-8"?>
<!-- Generator: Adobe Illustrator 22.1.0, SVG Export Plug-In . SVG Version: 6.00 Build 0)  -->
<svg version="1.1" id="Capa_1" xmlns="http://www.w3.org/2000/svg" xmlns:xlink="http://www.w3.org/1999/xlink" x="0px" y="0px"
	 viewBox="0 0 63 60" style="enable-background:new 0 0 63 60;" xml:space="preserve">
<style type="text/css">
	.st0{fill:#5ED7C6;}
	.st1{enable-background:new    ;}
	.st2{fill:#FFFFFF;}
</style>
<title>logo-desktop</title>
<desc>Created with Sketch.</desc>
<g id="Clip-3">
</g>
<g>
	<polygon id="Fill-1" class="st0" points="0,0 0,59.1 59.1,59.1 59.1,46.4 54.9,46.4 54.9,54.9 4.2,54.9 4.2,4.2 42.2,4.2 
		42.2,16.9 54.9,16.9 54.9,25.3 59.1,25.3 59.1,12.7 46.4,0 	"/>
	<g class="st1">
		<path class="st2" d="M23.4,39.4c-0.5,0.5-1.2,1-2.1,1.3s-1.9,0.5-3,0.5c-1.7,0-3-0.5-4-1.5s-1.5-2.5-1.6-4.3v-1.1
			c0-1.3,0.2-2.4,0.7-3.3c0.4-0.9,1.1-1.7,1.9-2.2c0.8-0.5,1.8-0.8,2.9-0.8c1.6,0,2.8,0.4,3.7,1.1c0.9,0.7,1.4,1.8,1.5,3.3h-3
			c-0.1-0.7-0.3-1.2-0.7-1.5s-0.8-0.5-1.5-0.5c-0.8,0-1.4,0.3-1.8,1s-0.6,1.6-0.6,2.8V35c0,1.3,0.2,2.2,0.7,2.9c0.4,0.6,1.1,1,2.1,1
			c0.8,0,1.4-0.2,1.8-0.5v-2h-2.1v-2.1h5.2v5.1H23.4z"/>
		<path class="st2" d="M28.5,41h-3.1V28.2h3.1V41z"/>
		<path class="st2" d="M38.7,35.9h-5V41h-3.1V28.2h8.6v2.4h-5.5v2.9h5V35.9z"/>
		<path class="st2" d="M51.3,34.9c0,1.2-0.2,2.4-0.7,3.3s-1.1,1.7-2,2.2s-1.8,0.8-2.9,0.8s-2.1-0.2-2.9-0.8c-0.8-0.5-1.5-1.2-2-2.1
			c-0.5-0.9-0.7-2-0.7-3.2v-0.7c0-1.3,0.2-2.4,0.7-3.3c0.5-1,1.1-1.7,2-2.2s1.8-0.8,2.9-0.8c1.1,0,2.1,0.3,2.9,0.8s1.5,1.2,2,2.2
			s0.7,2,0.7,3.3V34.9z M48.2,34.3c0-1.3-0.2-2.2-0.6-2.9c-0.4-0.7-1-1-1.8-1c-1.5,0-2.4,1.2-2.5,3.5v0.9c0,1.3,0.2,2.2,0.6,2.9
			s1,1,1.9,1c0.8,0,1.4-0.3,1.8-1s0.6-1.6,0.6-2.9V34.3z"/>
		<path class="st2" d="M59.5,37.6c0-0.5-0.2-0.8-0.5-1.1s-0.9-0.5-1.7-0.8s-1.5-0.5-2-0.8c-1.7-0.8-2.5-1.9-2.5-3.4
			c0-0.7,0.2-1.3,0.6-1.9c0.4-0.5,1-1,1.8-1.3s1.6-0.5,2.5-0.5s1.7,0.2,2.5,0.5c0.7,0.3,1.3,0.8,1.7,1.4s0.6,1.3,0.6,2.1h-3.1
			c0-0.5-0.2-0.9-0.5-1.2c-0.3-0.3-0.8-0.4-1.3-0.4c-0.6,0-1,0.1-1.3,0.4c-0.2,0.4-0.3,0.7-0.3,1c0,0.3,0.2,0.6,0.5,0.9
			s1,0.5,1.9,0.8s1.6,0.6,2.2,0.9c1.4,0.8,2.1,1.9,2.1,3.3c0,1.1-0.4,2-1.3,2.6s-2,1-3.5,1c-1,0-2-0.2-2.8-0.6
			c-0.8-0.4-1.5-0.9-1.9-1.5s-0.6-1.4-0.6-2.2h3.1c0,0.7,0.2,1.2,0.5,1.5c0.4,0.3,0.9,0.5,1.7,0.5c0.5,0,0.9-0.1,1.2-0.3
			S59.5,38,59.5,37.6z"/>
	</g>
</g>
</svg>
